<svg width="101" height="257" xmlns="http://www.w3.org/2000/svg" version="1.1" xml:space="preserve">

 <g>
  <title>Layer 1</title>
  <g stroke-width="2" id="Layer_x0020_1">
   <metadata id="CorelCorpID_0Corel-Layer"/>
   <path id="svg_1" fill="#727271" stroke-width="2.3619" stroke="#2B2A29" d="m99,66.26939l0,170l-7,16l-83,0l-8,-16l0,-170c34,-90 67,-84 98,0z" class="fil0 str0"/>
   <path id="svg_2" fill="#B2B3B3" stroke-width="2.3619" stroke="#2B2A29" d="m80,38.26939l0,22l-60,0l0,-22c16,-40 46,-38 60,0z" class="fil1 str0"/>
   <circle id="svg_3" fill="none" stroke-width="0.89989" stroke="#2B2A29" r="3" cy="56.26939" cx="13" class="fil2 str1"/>
   <circle id="svg_4" fill="none" stroke-width="0.89989" stroke="#2B2A29" r="3" cy="56.26939" cx="88" class="fil2 str1"/>
   <rect id="svg_5" fill="#B2B3B3" stroke-width="2.3619" stroke="#2B2A29" height="170.453" width="83.217" y="66.26939" x="9" class="fil1 str0"/>
   <rect x="400.3263" y="-187.16298" id="svg_6" fill="#C5C6C6" stroke-width="0.89989" stroke="#2B2A29" height="50.3393" width="24.0229" transform="matrix(4.04705e-14 -1.52808 1.52808 4.04705e-14 297.811 717.29)" class="fil3 str1"/>
   <g id="_1850713527888">
    <g id="svg_7">
     <rect x="366.21803" y="-145.69017" id="svg_8" fill="#5B5B5B" stroke-width="2.3619" stroke="#2B2A29" height="3.35154" width="6.93691" transform="matrix(4.42398e-14 -1.6704 1.96307 5.19911e-14 301.346 712.837)" class="fil4 str0"/>
     <rect x="366.21803" y="-145.69017" id="svg_9" fill="#5B5B5B" stroke-width="2.3619" stroke="#2B2A29" height="3.35154" width="6.93691" transform="matrix(4.42398e-14 -1.6704 1.96307 5.19911e-14 307.925 712.837)" class="fil4 str0"/>
     <rect x="366.21803" y="-145.69017" id="svg_10" fill="#5B5B5B" stroke-width="2.3619" stroke="#2B2A29" height="3.35154" width="6.93691" transform="matrix(4.42398e-14 -1.6704 1.96307 5.19911e-14 314.505 712.837)" class="fil4 str0"/>
     <rect x="366.21803" y="-145.69017" id="svg_11" fill="#5B5B5B" stroke-width="2.3619" stroke="#2B2A29" height="3.35154" width="6.93691" transform="matrix(4.42398e-14 -1.6704 1.96307 5.19911e-14 321.084 712.837)" class="fil4 str0"/>
     <rect x="366.21803" y="-145.69017" id="svg_12" fill="#5B5B5B" stroke-width="2.3619" stroke="#2B2A29" height="3.35154" width="6.93691" transform="matrix(4.42398e-14 -1.6704 1.96307 5.19911e-14 327.663 712.837)" class="fil4 str0"/>
    </g>
    <g id="svg_13">
     <rect x="366.21803" y="-145.69017" id="svg_14" fill="#5B5B5B" stroke-width="2.3619" stroke="#2B2A29" height="3.35154" width="6.93691" transform="matrix(4.42398e-14 -1.6704 1.96307 5.19911e-14 301.346 696.624)" class="fil4 str0"/>
     <rect x="366.21803" y="-145.69017" id="svg_15" fill="#5B5B5B" stroke-width="2.3619" stroke="#2B2A29" height="3.35154" width="6.93691" transform="matrix(4.42398e-14 -1.6704 1.96307 5.19911e-14 307.925 696.624)" class="fil4 str0"/>
     <rect x="366.21803" y="-145.69017" id="svg_16" fill="#5B5B5B" stroke-width="2.3619" stroke="#2B2A29" height="3.35154" width="6.93691" transform="matrix(4.42398e-14 -1.6704 1.96307 5.19911e-14 314.505 696.624)" class="fil4 str0"/>
     <rect x="366.21803" y="-145.69017" id="svg_17" fill="#5B5B5B" stroke-width="2.3619" stroke="#2B2A29" height="3.35154" width="6.93691" transform="matrix(4.42398e-14 -1.6704 1.96307 5.19911e-14 321.084 696.624)" class="fil4 str0"/>
     <rect x="366.21803" y="-145.69017" id="svg_18" fill="#5B5B5B" stroke-width="2.3619" stroke="#2B2A29" height="3.35154" width="6.93691" transform="matrix(4.42398e-14 -1.6704 1.96307 5.19911e-14 327.663 696.624)" class="fil4 str0"/>
    </g>
    <g id="svg_19">
     <rect x="366.21803" y="-145.69017" id="svg_20" fill="#5B5B5B" stroke-width="2.3619" stroke="#2B2A29" height="3.35154" width="6.93691" transform="matrix(4.42398e-14 -1.6704 1.96307 5.19911e-14 338.303 712.837)" class="fil4 str0"/>
     <rect x="366.21803" y="-145.69017" id="svg_21" fill="#5B5B5B" stroke-width="2.3619" stroke="#2B2A29" height="3.35154" width="6.93691" transform="matrix(4.42398e-14 -1.6704 1.96307 5.19911e-14 344.882 712.837)" class="fil4 str0"/>
     <rect x="366.21803" y="-145.69017" id="svg_22" fill="#5B5B5B" stroke-width="2.3619" stroke="#2B2A29" height="3.35154" width="6.93691" transform="matrix(4.42398e-14 -1.6704 1.96307 5.19911e-14 351.461 712.837)" class="fil4 str0"/>
     <rect x="366.21803" y="-145.69017" id="svg_23" fill="#5B5B5B" stroke-width="2.3619" stroke="#2B2A29" height="3.35154" width="6.93691" transform="matrix(4.42398e-14 -1.6704 1.96307 5.19911e-14 358.041 712.837)" class="fil4 str0"/>
     <rect x="366.21803" y="-145.69017" id="svg_24" fill="#5B5B5B" stroke-width="2.3619" stroke="#2B2A29" height="3.35154" width="6.93691" transform="matrix(4.42398e-14 -1.6704 1.96307 5.19911e-14 364.62 712.837)" class="fil4 str0"/>
    </g>
    <g id="svg_25">
     <rect x="366.21803" y="-145.69017" id="svg_26" fill="#5B5B5B" stroke-width="2.3619" stroke="#2B2A29" height="3.35154" width="6.93691" transform="matrix(4.42398e-14 -1.6704 1.96307 5.19911e-14 338.303 696.624)" class="fil4 str0"/>
     <rect x="366.21803" y="-145.69017" id="svg_27" fill="#5B5B5B" stroke-width="2.3619" stroke="#2B2A29" height="3.35154" width="6.93691" transform="matrix(4.42398e-14 -1.6704 1.96307 5.19911e-14 344.882 696.624)" class="fil4 str0"/>
     <rect x="366.21803" y="-145.69017" id="svg_28" fill="#5B5B5B" stroke-width="2.3619" stroke="#2B2A29" height="3.35154" width="6.93691" transform="matrix(4.42398e-14 -1.6704 1.96307 5.19911e-14 351.461 696.624)" class="fil4 str0"/>
     <rect x="366.21803" y="-145.69017" id="svg_29" fill="#5B5B5B" stroke-width="2.3619" stroke="#2B2A29" height="3.35154" width="6.93691" transform="matrix(4.42398e-14 -1.6704 1.96307 5.19911e-14 358.041 696.624)" class="fil4 str0"/>
     <rect x="366.21803" y="-145.69017" id="svg_30" fill="#5B5B5B" stroke-width="2.3619" stroke="#2B2A29" height="3.35154" width="6.93691" transform="matrix(4.42398e-14 -1.6704 1.96307 5.19911e-14 364.62 696.624)" class="fil4 str0"/>
    </g>
   </g>
   <rect x="400.3263" y="-187.16298" id="svg_31" fill="#C5C6C6" stroke-width="0.89989" stroke="#2B2A29" height="50.3393" width="24.0229" transform="matrix(4.04705e-14 -1.52808 1.52808 4.04705e-14 297.811 844.994)" class="fil3 str1"/>
   <g id="_1850713122240">
    <g id="svg_32">
     <rect x="366.21803" y="-145.69017" id="svg_33" fill="#5B5B5B" stroke-width="2.3619" stroke="#2B2A29" height="3.35154" width="6.93691" transform="matrix(4.42398e-14 -1.6704 1.96307 5.19911e-14 301.346 840.54)" class="fil4 str0"/>
     <rect x="366.21803" y="-145.69017" id="svg_34" fill="#5B5B5B" stroke-width="2.3619" stroke="#2B2A29" height="3.35154" width="6.93691" transform="matrix(4.42398e-14 -1.6704 1.96307 5.19911e-14 307.925 840.54)" class="fil4 str0"/>
     <rect x="366.21803" y="-145.69017" id="svg_35" fill="#5B5B5B" stroke-width="2.3619" stroke="#2B2A29" height="3.35154" width="6.93691" transform="matrix(4.42398e-14 -1.6704 1.96307 5.19911e-14 314.505 840.54)" class="fil4 str0"/>
     <rect x="366.21803" y="-145.69017" id="svg_36" fill="#5B5B5B" stroke-width="2.3619" stroke="#2B2A29" height="3.35154" width="6.93691" transform="matrix(4.42398e-14 -1.6704 1.96307 5.19911e-14 321.084 840.54)" class="fil4 str0"/>
     <rect x="366.21803" y="-145.69017" id="svg_37" fill="#5B5B5B" stroke-width="2.3619" stroke="#2B2A29" height="3.35154" width="6.93691" transform="matrix(4.42398e-14 -1.6704 1.96307 5.19911e-14 327.663 840.54)" class="fil4 str0"/>
    </g>
    <g id="svg_38">
     <rect x="366.21803" y="-145.69017" id="svg_39" fill="#5B5B5B" stroke-width="2.3619" stroke="#2B2A29" height="3.35154" width="6.93691" transform="matrix(4.42398e-14 -1.6704 1.96307 5.19911e-14 301.346 824.327)" class="fil4 str0"/>
     <rect x="366.21803" y="-145.69017" id="svg_40" fill="#5B5B5B" stroke-width="2.3619" stroke="#2B2A29" height="3.35154" width="6.93691" transform="matrix(4.42398e-14 -1.6704 1.96307 5.19911e-14 307.925 824.327)" class="fil4 str0"/>
     <rect x="366.21803" y="-145.69017" id="svg_41" fill="#5B5B5B" stroke-width="2.3619" stroke="#2B2A29" height="3.35154" width="6.93691" transform="matrix(4.42398e-14 -1.6704 1.96307 5.19911e-14 314.505 824.327)" class="fil4 str0"/>
     <rect x="366.21803" y="-145.69017" id="svg_42" fill="#5B5B5B" stroke-width="2.3619" stroke="#2B2A29" height="3.35154" width="6.93691" transform="matrix(4.42398e-14 -1.6704 1.96307 5.19911e-14 321.084 824.327)" class="fil4 str0"/>
     <rect x="366.21803" y="-145.69017" id="svg_43" fill="#5B5B5B" stroke-width="2.3619" stroke="#2B2A29" height="3.35154" width="6.93691" transform="matrix(4.42398e-14 -1.6704 1.96307 5.19911e-14 327.663 824.327)" class="fil4 str0"/>
    </g>
    <g id="svg_44">
     <rect x="366.21803" y="-145.69017" id="svg_45" fill="#5B5B5B" stroke-width="2.3619" stroke="#2B2A29" height="3.35154" width="6.93691" transform="matrix(4.42398e-14 -1.6704 1.96307 5.19911e-14 338.303 840.54)" class="fil4 str0"/>
     <rect x="366.21803" y="-145.69017" id="svg_46" fill="#5B5B5B" stroke-width="2.3619" stroke="#2B2A29" height="3.35154" width="6.93691" transform="matrix(4.42398e-14 -1.6704 1.96307 5.19911e-14 344.882 840.54)" class="fil4 str0"/>
     <rect x="366.21803" y="-145.69017" id="svg_47" fill="#5B5B5B" stroke-width="2.3619" stroke="#2B2A29" height="3.35154" width="6.93691" transform="matrix(4.42398e-14 -1.6704 1.96307 5.19911e-14 351.461 840.54)" class="fil4 str0"/>
     <rect x="366.21803" y="-145.69017" id="svg_48" fill="#5B5B5B" stroke-width="2.3619" stroke="#2B2A29" height="3.35154" width="6.93691" transform="matrix(4.42398e-14 -1.6704 1.96307 5.19911e-14 358.041 840.54)" class="fil4 str0"/>
     <rect x="366.21803" y="-145.69017" id="svg_49" fill="#5B5B5B" stroke-width="2.3619" stroke="#2B2A29" height="3.35154" width="6.93691" transform="matrix(4.42398e-14 -1.6704 1.96307 5.19911e-14 364.62 840.54)" class="fil4 str0"/>
    </g>
    <g id="svg_50">
     <rect x="366.21803" y="-145.69017" id="svg_51" fill="#5B5B5B" stroke-width="2.3619" stroke="#2B2A29" height="3.35154" width="6.93691" transform="matrix(4.42398e-14 -1.6704 1.96307 5.19911e-14 338.303 824.327)" class="fil4 str0"/>
     <rect x="366.21803" y="-145.69017" id="svg_52" fill="#5B5B5B" stroke-width="2.3619" stroke="#2B2A29" height="3.35154" width="6.93691" transform="matrix(4.42398e-14 -1.6704 1.96307 5.19911e-14 344.882 824.327)" class="fil4 str0"/>
     <rect x="366.21803" y="-145.69017" id="svg_53" fill="#5B5B5B" stroke-width="2.3619" stroke="#2B2A29" height="3.35154" width="6.93691" transform="matrix(4.42398e-14 -1.6704 1.96307 5.19911e-14 351.461 824.327)" class="fil4 str0"/>
     <rect x="366.21803" y="-145.69017" id="svg_54" fill="#5B5B5B" stroke-width="2.3619" stroke="#2B2A29" height="3.35154" width="6.93691" transform="matrix(4.42398e-14 -1.6704 1.96307 5.19911e-14 358.041 824.327)" class="fil4 str0"/>
     <rect x="366.21803" y="-145.69017" id="svg_55" fill="#5B5B5B" stroke-width="2.3619" stroke="#2B2A29" height="3.35154" width="6.93691" transform="matrix(4.42398e-14 -1.6704 1.96307 5.19911e-14 364.62 824.327)" class="fil4 str0"/>
    </g>
   </g>
   <rect id="svg_56" fill="#434242" stroke-width="2.3619" stroke="#2B2A29" height="24.4646" width="10.8081" y="160.26939" x="15" class="fil5 str0"/>
   <rect id="svg_57" fill="#434242" stroke-width="2.3619" stroke="#2B2A29" height="24.4646" width="10.8081" y="160.26939" x="74" class="fil5 str0"/>
   <g id="_1850713114016">
    <rect id="svg_58" fill="#D9DADA" stroke-width="0.89989" stroke="#2B2A29" height="3.05808" width="34.9536" y="169.26939" x="33" class="fil6 str1"/>
    <rect id="svg_59" fill="#D9DADA" stroke-width="0.89989" stroke="#2B2A29" height="3.05808" width="34.9536" y="172.26939" x="33" class="fil6 str1"/>
    <rect id="svg_60" fill="#D9DADA" stroke-width="0.89989" stroke="#2B2A29" height="3.05808" width="34.9536" y="175.26939" x="33" class="fil6 str1"/>
    <rect id="svg_61" fill="#D9DADA" stroke-width="0.89989" stroke="#2B2A29" height="3.05808" width="34.9536" y="178.26939" x="33" class="fil6 str1"/>
    <rect id="svg_62" fill="#D9DADA" stroke-width="0.89989" stroke="#2B2A29" height="3.05808" width="34.9536" y="181.26939" x="33" class="fil6 str1"/>
   </g>
   <g id="_1850713110656">
    <rect id="svg_63" fill="#D9DADA" stroke-width="0.89989" stroke="#2B2A29" height="3.05808" width="34.9536" y="154.26939" x="33" class="fil6 str1"/>
    <rect id="svg_64" fill="#D9DADA" stroke-width="0.89989" stroke="#2B2A29" height="3.05808" width="34.9536" y="157.26939" x="33" class="fil6 str1"/>
    <rect id="svg_65" fill="#D9DADA" stroke-width="0.89989" stroke="#2B2A29" height="3.05808" width="34.9536" y="160.26939" x="33" class="fil6 str1"/>
    <rect id="svg_66" fill="#D9DADA" stroke-width="0.89989" stroke="#2B2A29" height="3.05808" width="34.9536" y="163.26939" x="33" class="fil6 str1"/>
    <rect id="svg_67" fill="#D9DADA" stroke-width="0.89989" stroke="#2B2A29" height="3.05808" width="34.9536" y="166.26939" x="33" class="fil6 str1"/>
   </g>
   <rect x="400.3263" y="-187.16298" id="svg_68" fill="#C5C6C6" stroke-width="0.89989" stroke="#2B2A29" height="50.3393" width="24.0229" transform="matrix(4.04705e-14 -1.52808 1.52808 4.04705e-14 297.811 756.864)" class="fil3 str1"/>
   <g id="_1850713092384">
    <g id="svg_69">
     <rect x="366.21803" y="-145.69017" id="svg_70" fill="#5B5B5B" stroke-width="2.3619" stroke="#2B2A29" height="3.35154" width="6.93691" transform="matrix(4.42398e-14 -1.6704 1.96307 5.19911e-14 301.346 752.411)" class="fil4 str0"/>
     <rect x="366.21803" y="-145.69017" id="svg_71" fill="#5B5B5B" stroke-width="2.3619" stroke="#2B2A29" height="3.35154" width="6.93691" transform="matrix(4.42398e-14 -1.6704 1.96307 5.19911e-14 307.925 752.411)" class="fil4 str0"/>
     <rect x="366.21803" y="-145.69017" id="svg_72" fill="#5B5B5B" stroke-width="2.3619" stroke="#2B2A29" height="3.35154" width="6.93691" transform="matrix(4.42398e-14 -1.6704 1.96307 5.19911e-14 314.505 752.411)" class="fil4 str0"/>
     <rect x="366.21803" y="-145.69017" id="svg_73" fill="#5B5B5B" stroke-width="2.3619" stroke="#2B2A29" height="3.35154" width="6.93691" transform="matrix(4.42398e-14 -1.6704 1.96307 5.19911e-14 321.084 752.411)" class="fil4 str0"/>
     <rect x="366.21803" y="-145.69017" id="svg_74" fill="#5B5B5B" stroke-width="2.3619" stroke="#2B2A29" height="3.35154" width="6.93691" transform="matrix(4.42398e-14 -1.6704 1.96307 5.19911e-14 327.663 752.411)" class="fil4 str0"/>
    </g>
    <g id="svg_75">
     <rect x="366.21803" y="-145.69017" id="svg_76" fill="#5B5B5B" stroke-width="2.3619" stroke="#2B2A29" height="3.35154" width="6.93691" transform="matrix(4.42398e-14 -1.6704 1.96307 5.19911e-14 301.346 736.197)" class="fil4 str0"/>
     <rect x="366.21803" y="-145.69017" id="svg_77" fill="#5B5B5B" stroke-width="2.3619" stroke="#2B2A29" height="3.35154" width="6.93691" transform="matrix(4.42398e-14 -1.6704 1.96307 5.19911e-14 307.925 736.197)" class="fil4 str0"/>
     <rect x="366.21803" y="-145.69017" id="svg_78" fill="#5B5B5B" stroke-width="2.3619" stroke="#2B2A29" height="3.35154" width="6.93691" transform="matrix(4.42398e-14 -1.6704 1.96307 5.19911e-14 314.505 736.197)" class="fil4 str0"/>
     <rect x="366.21803" y="-145.69017" id="svg_79" fill="#5B5B5B" stroke-width="2.3619" stroke="#2B2A29" height="3.35154" width="6.93691" transform="matrix(4.42398e-14 -1.6704 1.96307 5.19911e-14 321.084 736.197)" class="fil4 str0"/>
     <rect x="366.21803" y="-145.69017" id="svg_80" fill="#5B5B5B" stroke-width="2.3619" stroke="#2B2A29" height="3.35154" width="6.93691" transform="matrix(4.42398e-14 -1.6704 1.96307 5.19911e-14 327.663 736.197)" class="fil4 str0"/>
    </g>
    <g id="svg_81">
     <rect x="366.21803" y="-145.69017" id="svg_82" fill="#5B5B5B" stroke-width="2.3619" stroke="#2B2A29" height="3.35154" width="6.93691" transform="matrix(4.42398e-14 -1.6704 1.96307 5.19911e-14 338.303 752.411)" class="fil4 str0"/>
     <rect x="366.21803" y="-145.69017" id="svg_83" fill="#5B5B5B" stroke-width="2.3619" stroke="#2B2A29" height="3.35154" width="6.93691" transform="matrix(4.42398e-14 -1.6704 1.96307 5.19911e-14 344.882 752.411)" class="fil4 str0"/>
     <rect x="366.21803" y="-145.69017" id="svg_84" fill="#5B5B5B" stroke-width="2.3619" stroke="#2B2A29" height="3.35154" width="6.93691" transform="matrix(4.42398e-14 -1.6704 1.96307 5.19911e-14 351.461 752.411)" class="fil4 str0"/>
     <rect x="366.21803" y="-145.69017" id="svg_85" fill="#5B5B5B" stroke-width="2.3619" stroke="#2B2A29" height="3.35154" width="6.93691" transform="matrix(4.42398e-14 -1.6704 1.96307 5.19911e-14 358.041 752.411)" class="fil4 str0"/>
     <rect x="366.21803" y="-145.69017" id="svg_86" fill="#5B5B5B" stroke-width="2.3619" stroke="#2B2A29" height="3.35154" width="6.93691" transform="matrix(4.42398e-14 -1.6704 1.96307 5.19911e-14 364.62 752.411)" class="fil4 str0"/>
    </g>
    <g id="svg_87">
     <rect x="366.21803" y="-145.69017" id="svg_88" fill="#5B5B5B" stroke-width="2.3619" stroke="#2B2A29" height="3.35154" width="6.93691" transform="matrix(4.42398e-14 -1.6704 1.96307 5.19911e-14 338.303 736.197)" class="fil4 str0"/>
     <rect x="366.21803" y="-145.69017" id="svg_89" fill="#5B5B5B" stroke-width="2.3619" stroke="#2B2A29" height="3.35154" width="6.93691" transform="matrix(4.42398e-14 -1.6704 1.96307 5.19911e-14 344.882 736.197)" class="fil4 str0"/>
     <rect x="366.21803" y="-145.69017" id="svg_90" fill="#5B5B5B" stroke-width="2.3619" stroke="#2B2A29" height="3.35154" width="6.93691" transform="matrix(4.42398e-14 -1.6704 1.96307 5.19911e-14 351.461 736.197)" class="fil4 str0"/>
     <rect x="366.21803" y="-145.69017" id="svg_91" fill="#5B5B5B" stroke-width="2.3619" stroke="#2B2A29" height="3.35154" width="6.93691" transform="matrix(4.42398e-14 -1.6704 1.96307 5.19911e-14 358.041 736.197)" class="fil4 str0"/>
     <rect x="366.21803" y="-145.69017" id="svg_92" fill="#5B5B5B" stroke-width="2.3619" stroke="#2B2A29" height="3.35154" width="6.93691" transform="matrix(4.42398e-14 -1.6704 1.96307 5.19911e-14 364.62 736.197)" class="fil4 str0"/>
    </g>
   </g>
   <circle id="svg_93" fill="#D9DADA" stroke-width="0.89989" stroke="#2B2A29" r="14" cy="37.26939" cx="50" class="fil6 str1"/>
  </g>
 </g>
</svg>