<svg width="100" height="258" xmlns="http://www.w3.org/2000/svg" version="1.1" xml:space="preserve">

 <g>
  <title>Layer 1</title>
  <g stroke-width="2" id="Layer_x0020_1">
   <metadata id="CorelCorpID_0Corel-Layer"/>
   <path id="svg_1" fill="#D9DADA" stroke-width="2.3619" stroke="#2B2A29" d="m99,66.26939l0,170l-7,16l-83,0l-8,-16l0,-170c34,-90 67,-84 98,0z" class="fil0 str0"/>
   <path id="svg_2" fill="#00A0E3" stroke-width="2.3619" stroke="#2B2A29" d="m80,38.26939l0,22l-60,0l0,-22c16,-40 46,-38 60,0z" class="fil1 str0"/>
   <circle id="svg_3" fill="none" stroke-width="0.89989" stroke="#2B2A29" r="3" cy="56.26939" cx="13" class="fil2 str1"/>
   <circle id="svg_4" fill="none" stroke-width="0.89989" stroke="#2B2A29" r="3" cy="56.26939" cx="88" class="fil2 str1"/>
   <rect id="svg_5" fill="#00A0E3" stroke-width="2.3619" stroke="#2B2A29" height="170.453" width="83.217" y="66.26939" x="9" class="fil1 str0"/>
   <g id="_1850892701040">
    <circle id="svg_6" fill="#D9DADA" stroke-width="0.89989" stroke="#2B2A29" r="9" cy="101.26939" cx="29" class="fil0 str1"/>
    <rect id="svg_7" fill="#D9DADA" stroke-width="0.89989" stroke="#2B2A29" height="14.8091" width="3.21928" y="77.26939" x="28" class="fil0 str1"/>
   </g>
   <g id="_1850892699504">
    <circle id="svg_8" fill="#D9DADA" stroke-width="0.89989" stroke="#2B2A29" r="9" cy="101.26939" cx="71" class="fil0 str1"/>
    <rect id="svg_9" fill="#D9DADA" stroke-width="0.89989" stroke="#2B2A29" height="14.8091" width="3.21928" y="77.26939" x="69" class="fil0 str1"/>
   </g>
   <rect id="svg_10" fill="#C5C6C6" stroke-width="0.89989" stroke="#2B2A29" height="76.9225" width="36.709" y="113.26939" x="32" class="fil3 str1"/>
   <g id="_1850892693808">
    <g id="svg_11">
     <rect id="svg_12" fill="#5B5B5B" stroke-width="2.3619" stroke="#2B2A29" height="6.57932" width="11.5874" y="116.26939" x="36" class="fil4 str0"/>
     <rect id="svg_13" fill="#5B5B5B" stroke-width="2.3619" stroke="#2B2A29" height="6.57932" width="11.5874" y="123.26939" x="36" class="fil4 str0"/>
     <rect id="svg_14" fill="#5B5B5B" stroke-width="2.3619" stroke="#2B2A29" height="6.57932" width="11.5874" y="129.26939" x="36" class="fil4 str0"/>
     <rect id="svg_15" fill="#5B5B5B" stroke-width="2.3619" stroke="#2B2A29" height="6.57932" width="11.5874" y="136.26939" x="36" class="fil4 str0"/>
     <rect id="svg_16" fill="#5B5B5B" stroke-width="2.3619" stroke="#2B2A29" height="6.57932" width="11.5874" y="143.26939" x="36" class="fil4 str0"/>
    </g>
    <g id="svg_17">
     <rect id="svg_18" fill="#5B5B5B" stroke-width="2.3619" stroke="#2B2A29" height="6.57932" width="11.5874" y="116.26939" x="53" class="fil4 str0"/>
     <rect id="svg_19" fill="#5B5B5B" stroke-width="2.3619" stroke="#2B2A29" height="6.57932" width="11.5874" y="123.26939" x="53" class="fil4 str0"/>
     <rect id="svg_20" fill="#5B5B5B" stroke-width="2.3619" stroke="#2B2A29" height="6.57932" width="11.5874" y="129.26939" x="53" class="fil4 str0"/>
     <rect id="svg_21" fill="#5B5B5B" stroke-width="2.3619" stroke="#2B2A29" height="6.57932" width="11.5874" y="136.26939" x="53" class="fil4 str0"/>
     <rect id="svg_22" fill="#5B5B5B" stroke-width="2.3619" stroke="#2B2A29" height="6.57932" width="11.5874" y="143.26939" x="53" class="fil4 str0"/>
    </g>
    <g id="svg_23">
     <rect id="svg_24" fill="#5B5B5B" stroke-width="2.3619" stroke="#2B2A29" height="6.57932" width="11.5874" y="153.26939" x="36" class="fil4 str0"/>
     <rect id="svg_25" fill="#5B5B5B" stroke-width="2.3619" stroke="#2B2A29" height="6.57932" width="11.5874" y="160.26939" x="36" class="fil4 str0"/>
     <rect id="svg_26" fill="#5B5B5B" stroke-width="2.3619" stroke="#2B2A29" height="6.57932" width="11.5874" y="166.26939" x="36" class="fil4 str0"/>
     <rect id="svg_27" fill="#5B5B5B" stroke-width="2.3619" stroke="#2B2A29" height="6.57932" width="11.5874" y="173.26939" x="36" class="fil4 str0"/>
     <rect id="svg_28" fill="#5B5B5B" stroke-width="2.3619" stroke="#2B2A29" height="6.57932" width="11.5874" y="180.26939" x="36" class="fil4 str0"/>
    </g>
    <g id="svg_29">
     <rect id="svg_30" fill="#5B5B5B" stroke-width="2.3619" stroke="#2B2A29" height="6.57932" width="11.5874" y="153.26939" x="53" class="fil4 str0"/>
     <rect id="svg_31" fill="#5B5B5B" stroke-width="2.3619" stroke="#2B2A29" height="6.57932" width="11.5874" y="160.26939" x="53" class="fil4 str0"/>
     <rect id="svg_32" fill="#5B5B5B" stroke-width="2.3619" stroke="#2B2A29" height="6.57932" width="11.5874" y="166.26939" x="53" class="fil4 str0"/>
     <rect id="svg_33" fill="#5B5B5B" stroke-width="2.3619" stroke="#2B2A29" height="6.57932" width="11.5874" y="173.26939" x="53" class="fil4 str0"/>
     <rect id="svg_34" fill="#5B5B5B" stroke-width="2.3619" stroke="#2B2A29" height="6.57932" width="11.5874" y="180.26939" x="53" class="fil4 str0"/>
    </g>
   </g>
   <rect id="svg_35" fill="#434242" stroke-width="2.3619" stroke="#2B2A29" height="24.4646" width="10.8081" y="206.26939" x="15" class="fil5 str0"/>
   <rect id="svg_36" fill="#D9DADA" stroke-width="0.89989" stroke="#2B2A29" height="12.2323" width="10.8081" y="193.26939" x="15" class="fil0 str1"/>
   <rect id="svg_37" fill="#434242" stroke-width="2.3619" stroke="#2B2A29" height="24.4646" width="10.8081" y="206.26939" x="74" class="fil5 str0"/>
   <rect id="svg_38" fill="#D9DADA" stroke-width="0.89989" stroke="#2B2A29" height="12.2323" width="10.8081" y="193.26939" x="74" class="fil0 str1"/>
   <g id="_1850892691248">
    <rect id="svg_39" fill="#D9DADA" stroke-width="0.89989" stroke="#2B2A29" height="3.05808" width="34.9536" y="215.26939" x="33" class="fil0 str1"/>
    <rect id="svg_40" fill="#D9DADA" stroke-width="0.89989" stroke="#2B2A29" height="3.05808" width="34.9536" y="218.26939" x="33" class="fil0 str1"/>
    <rect id="svg_41" fill="#D9DADA" stroke-width="0.89989" stroke="#2B2A29" height="3.05808" width="34.9536" y="221.26939" x="33" class="fil0 str1"/>
    <rect id="svg_42" fill="#D9DADA" stroke-width="0.89989" stroke="#2B2A29" height="3.05808" width="34.9536" y="224.26939" x="33" class="fil0 str1"/>
    <rect id="svg_43" fill="#D9DADA" stroke-width="0.89989" stroke="#2B2A29" height="3.05808" width="34.9536" y="227.26939" x="33" class="fil0 str1"/>
   </g>
   <g id="_1850892689584">
    <rect id="svg_44" fill="#D9DADA" stroke-width="0.89989" stroke="#2B2A29" height="3.05808" width="34.9536" y="200.26939" x="33" class="fil0 str1"/>
    <rect id="svg_45" fill="#D9DADA" stroke-width="0.89989" stroke="#2B2A29" height="3.05808" width="34.9536" y="203.26939" x="33" class="fil0 str1"/>
    <rect id="svg_46" fill="#D9DADA" stroke-width="0.89989" stroke="#2B2A29" height="3.05808" width="34.9536" y="206.26939" x="33" class="fil0 str1"/>
    <rect id="svg_47" fill="#D9DADA" stroke-width="0.89989" stroke="#2B2A29" height="3.05808" width="34.9536" y="209.26939" x="33" class="fil0 str1"/>
    <rect id="svg_48" fill="#D9DADA" stroke-width="0.89989" stroke="#2B2A29" height="3.05808" width="34.9536" y="212.26939" x="33" class="fil0 str1"/>
   </g>
   <rect id="svg_49" fill="#898989" stroke-width="2.3619" stroke="#2B2A29" height="20.153" width="7.9667" y="21.26939" x="46" class="fil6 str0"/>
   <rect id="svg_50" fill="#898989" stroke-width="2.3619" stroke="#2B2A29" height="11.3938" width="19.9581" y="35.26939" x="40" class="fil6 str0"/>
   <circle id="svg_51" fill="#434242" r="3" cy="74.26939" cx="15" class="fil5"/>
   <circle id="svg_52" fill="#434242" r="3" cy="85.26939" cx="15" class="fil5"/>
   <circle id="svg_53" fill="#434242" r="3" cy="95.26939" cx="15" class="fil5"/>
   <circle id="svg_54" fill="#434242" r="3" cy="107.26939" cx="15" class="fil5"/>
   <circle id="svg_55" fill="#434242" r="3" cy="118.26939" cx="15" class="fil5"/>
   <circle id="svg_56" fill="#434242" r="3" cy="129.26939" cx="15" class="fil5"/>
   <circle id="svg_57" fill="#434242" r="3" cy="139.26939" cx="15" class="fil5"/>
   <circle id="svg_58" fill="#434242" r="3" cy="150.26939" cx="15" class="fil5"/>
   <circle id="svg_59" fill="#434242" r="3" cy="162.26939" cx="15" class="fil5"/>
   <circle id="svg_60" fill="#434242" r="3" cy="173.26939" cx="15" class="fil5"/>
   <circle id="svg_61" fill="#434242" r="3" cy="183.26939" cx="15" class="fil5"/>
   <circle id="svg_62" fill="#434242" r="3" cy="74.26939" cx="85" class="fil5"/>
   <circle id="svg_63" fill="#434242" r="3" cy="85.26939" cx="85" class="fil5"/>
   <circle id="svg_64" fill="#434242" r="3" cy="95.26939" cx="85" class="fil5"/>
   <circle id="svg_65" fill="#434242" r="3" cy="107.26939" cx="85" class="fil5"/>
   <circle id="svg_66" fill="#434242" r="3" cy="118.26939" cx="85" class="fil5"/>
   <circle id="svg_67" fill="#434242" r="3" cy="129.26939" cx="85" class="fil5"/>
   <circle id="svg_68" fill="#434242" r="3" cy="139.26939" cx="85" class="fil5"/>
   <circle id="svg_69" fill="#434242" r="3" cy="150.26939" cx="85" class="fil5"/>
   <circle id="svg_70" fill="#434242" r="3" cy="162.26939" cx="85" class="fil5"/>
   <circle id="svg_71" fill="#434242" r="3" cy="173.26939" cx="85" class="fil5"/>
   <circle id="svg_72" fill="#434242" r="3" cy="183.26939" cx="85" class="fil5"/>
  </g>
 </g>
</svg>