<svg width="102" height="262" xmlns="http://www.w3.org/2000/svg" xml:space="preserve" version="1.1">
 <g>
  <title>Layer 1</title>
  <g stroke="null" id="Layer_x0020_1" stroke-width="5">
   <metadata stroke="null" id="CorelCorpID_0Corel-Layer"/>
   <path stroke="#2B2A29" class="fil0 str0" d="m100.5,67.76939l0,170l-7,16l-83,0l-8,-16l0,-170c34,-90 67,-84 98,0z" stroke-width="2.3619" fill="#D9DADA" id="svg_1"/>
   <path stroke="#2B2A29" class="fil1 str0" d="m81.5,39.76939l0,22l-60,0l0,-22c16,-40 46,-38 60,0z" stroke-width="2.3619" fill="#B2B3B3" id="svg_2"/>
   <circle stroke="#2B2A29" class="fil2 str1" cx="14.5" cy="57.76939" r="3" stroke-width="0.89989" fill="none" id="svg_3"/>
   <circle stroke="#2B2A29" class="fil2 str1" cx="89.5" cy="57.76939" r="3" stroke-width="0.89989" fill="none" id="svg_4"/>
   <rect stroke="#2B2A29" class="fil3 str0" x="10.5" y="67.76939" width="83.217" height="170.453" stroke-width="2.3619" fill="#9D9E9E" id="svg_5"/>
   <g stroke="null" id="_1850713116608">
    <circle stroke="#2B2A29" class="fil0 str1" cx="30.5" cy="102.76939" r="9" stroke-width="0.89989" fill="#D9DADA" id="svg_6"/>
    <rect stroke="#2B2A29" class="fil0 str1" x="29.5" y="78.76939" width="3.21928" height="14.8091" stroke-width="0.89989" fill="#D9DADA" id="svg_7"/>
   </g>
   <g stroke="null" id="_1850713114208">
    <circle stroke="#2B2A29" class="fil0 str1" cx="72.5" cy="102.76939" r="9" stroke-width="0.89989" fill="#D9DADA" id="svg_8"/>
    <rect stroke="#2B2A29" class="fil0 str1" x="70.5" y="78.76939" width="3.21928" height="14.8091" stroke-width="0.89989" fill="#D9DADA" id="svg_9"/>
   </g>
   <rect stroke="#2B2A29" class="fil4 str1" x="33.5" y="114.76939" width="36.709" height="76.9225" stroke-width="0.89989" fill="#C5C6C6" id="svg_10"/>
   <g stroke="null" id="_1850713100672">
    <g stroke="null" id="svg_11">
     <rect stroke="#2B2A29" class="fil5 str0" x="37.5" y="117.76939" width="11.5874" height="6.57932" stroke-width="2.3619" fill="#5B5B5B" id="svg_12"/>
     <rect stroke="#2B2A29" class="fil5 str0" x="37.5" y="124.76939" width="11.5874" height="6.57932" stroke-width="2.3619" fill="#5B5B5B" id="svg_13"/>
     <rect stroke="#2B2A29" class="fil5 str0" x="37.5" y="130.76939" width="11.5874" height="6.57932" stroke-width="2.3619" fill="#5B5B5B" id="svg_14"/>
     <rect stroke="#2B2A29" class="fil5 str0" x="37.5" y="137.76939" width="11.5874" height="6.57932" stroke-width="2.3619" fill="#5B5B5B" id="svg_15"/>
     <rect stroke="#2B2A29" class="fil5 str0" x="37.5" y="144.76939" width="11.5874" height="6.57932" stroke-width="2.3619" fill="#5B5B5B" id="svg_16"/>
    </g>
    <g stroke="null" id="svg_17">
     <rect stroke="#2B2A29" class="fil5 str0" x="54.5" y="117.76939" width="11.5874" height="6.57932" stroke-width="2.3619" fill="#5B5B5B" id="svg_18"/>
     <rect stroke="#2B2A29" class="fil5 str0" x="54.5" y="124.76939" width="11.5874" height="6.57932" stroke-width="2.3619" fill="#5B5B5B" id="svg_19"/>
     <rect stroke="#2B2A29" class="fil5 str0" x="54.5" y="130.76939" width="11.5874" height="6.57932" stroke-width="2.3619" fill="#5B5B5B" id="svg_20"/>
     <rect stroke="#2B2A29" class="fil5 str0" x="54.5" y="137.76939" width="11.5874" height="6.57932" stroke-width="2.3619" fill="#5B5B5B" id="svg_21"/>
     <rect stroke="#2B2A29" class="fil5 str0" x="54.5" y="144.76939" width="11.5874" height="6.57932" stroke-width="2.3619" fill="#5B5B5B" id="svg_22"/>
    </g>
    <g stroke="null" id="svg_23">
     <rect stroke="#2B2A29" class="fil5 str0" x="37.5" y="154.76939" width="11.5874" height="6.57932" stroke-width="2.3619" fill="#5B5B5B" id="svg_24"/>
     <rect stroke="#2B2A29" class="fil5 str0" x="37.5" y="161.76939" width="11.5874" height="6.57932" stroke-width="2.3619" fill="#5B5B5B" id="svg_25"/>
     <rect stroke="#2B2A29" class="fil5 str0" x="37.5" y="167.76939" width="11.5874" height="6.57932" stroke-width="2.3619" fill="#5B5B5B" id="svg_26"/>
     <rect stroke="#2B2A29" class="fil5 str0" x="37.5" y="174.76939" width="11.5874" height="6.57932" stroke-width="2.3619" fill="#5B5B5B" id="svg_27"/>
     <rect stroke="#2B2A29" class="fil5 str0" x="37.5" y="181.76939" width="11.5874" height="6.57932" stroke-width="2.3619" fill="#5B5B5B" id="svg_28"/>
    </g>
    <g stroke="null" id="svg_29">
     <rect stroke="#2B2A29" class="fil5 str0" x="54.5" y="154.76939" width="11.5874" height="6.57932" stroke-width="2.3619" fill="#5B5B5B" id="svg_30"/>
     <rect stroke="#2B2A29" class="fil5 str0" x="54.5" y="161.76939" width="11.5874" height="6.57932" stroke-width="2.3619" fill="#5B5B5B" id="svg_31"/>
     <rect stroke="#2B2A29" class="fil5 str0" x="54.5" y="167.76939" width="11.5874" height="6.57932" stroke-width="2.3619" fill="#5B5B5B" id="svg_32"/>
     <rect stroke="#2B2A29" class="fil5 str0" x="54.5" y="174.76939" width="11.5874" height="6.57932" stroke-width="2.3619" fill="#5B5B5B" id="svg_33"/>
     <rect stroke="#2B2A29" class="fil5 str0" x="54.5" y="181.76939" width="11.5874" height="6.57932" stroke-width="2.3619" fill="#5B5B5B" id="svg_34"/>
    </g>
   </g>
   <rect stroke="#2B2A29" class="fil6 str0" x="16.5" y="207.76939" width="10.8081" height="24.4646" stroke-width="2.3619" fill="#434242" id="svg_35"/>
   <rect stroke="#2B2A29" class="fil0 str1" x="16.5" y="194.76939" width="10.8081" height="12.2323" stroke-width="0.89989" fill="#D9DADA" id="svg_36"/>
   <rect stroke="#2B2A29" class="fil6 str0" x="75.5" y="207.76939" width="10.8081" height="24.4646" stroke-width="2.3619" fill="#434242" id="svg_37"/>
   <rect stroke="#2B2A29" class="fil0 str1" x="75.5" y="194.76939" width="10.8081" height="12.2323" stroke-width="0.89989" fill="#D9DADA" id="svg_38"/>
   <g stroke="null" id="_1850713095232">
    <rect stroke="#2B2A29" class="fil0 str1" x="34.5" y="216.76939" width="34.9536" height="3.05808" stroke-width="0.89989" fill="#D9DADA" id="svg_39"/>
    <rect stroke="#2B2A29" class="fil0 str1" x="34.5" y="219.76939" width="34.9536" height="3.05808" stroke-width="0.89989" fill="#D9DADA" id="svg_40"/>
    <rect stroke="#2B2A29" class="fil0 str1" x="34.5" y="222.76939" width="34.9536" height="3.05808" stroke-width="0.89989" fill="#D9DADA" id="svg_41"/>
    <rect stroke="#2B2A29" class="fil0 str1" x="34.5" y="225.76939" width="34.9536" height="3.05808" stroke-width="0.89989" fill="#D9DADA" id="svg_42"/>
    <rect stroke="#2B2A29" class="fil0 str1" x="34.5" y="228.76939" width="34.9536" height="3.05808" stroke-width="0.89989" fill="#D9DADA" id="svg_43"/>
   </g>
   <g stroke="null" id="_1850713092960">
    <rect stroke="#2B2A29" class="fil0 str1" x="34.5" y="201.76939" width="34.9536" height="3.05808" stroke-width="0.89989" fill="#D9DADA" id="svg_44"/>
    <rect stroke="#2B2A29" class="fil0 str1" x="34.5" y="204.76939" width="34.9536" height="3.05808" stroke-width="0.89989" fill="#D9DADA" id="svg_45"/>
    <rect stroke="#2B2A29" class="fil0 str1" x="34.5" y="207.76939" width="34.9536" height="3.05808" stroke-width="0.89989" fill="#D9DADA" id="svg_46"/>
    <rect stroke="#2B2A29" class="fil0 str1" x="34.5" y="210.76939" width="34.9536" height="3.05808" stroke-width="0.89989" fill="#D9DADA" id="svg_47"/>
    <rect stroke="#2B2A29" class="fil0 str1" x="34.5" y="213.76939" width="34.9536" height="3.05808" stroke-width="0.89989" fill="#D9DADA" id="svg_48"/>
   </g>
   <rect stroke="#2B2A29" class="fil7 str0" x="47.5" y="22.76939" width="7.9667" height="20.153" stroke-width="2.3619" fill="#898989" id="svg_49"/>
   <rect stroke="#2B2A29" class="fil7 str0" x="41.5" y="36.76939" width="19.9581" height="11.3938" stroke-width="2.3619" fill="#898989" id="svg_50"/>
   <circle stroke="null" class="fil6" cx="16.5" cy="75.76939" r="3" fill="#434242" id="svg_51"/>
   <circle stroke="null" class="fil6" cx="16.5" cy="86.76939" r="3" fill="#434242" id="svg_52"/>
   <circle stroke="null" class="fil6" cx="16.5" cy="96.76939" r="3" fill="#434242" id="svg_53"/>
   <circle stroke="null" class="fil6" cx="16.5" cy="108.76939" r="3" fill="#434242" id="svg_54"/>
   <circle stroke="null" class="fil6" cx="16.5" cy="119.76939" r="3" fill="#434242" id="svg_55"/>
   <circle stroke="null" class="fil6" cx="16.5" cy="130.76939" r="3" fill="#434242" id="svg_56"/>
   <circle stroke="null" class="fil6" cx="16.5" cy="140.76939" r="3" fill="#434242" id="svg_57"/>
   <circle stroke="null" class="fil6" cx="16.5" cy="151.76939" r="3" fill="#434242" id="svg_58"/>
   <circle stroke="null" class="fil6" cx="16.5" cy="163.76939" r="3" fill="#434242" id="svg_59"/>
   <circle stroke="null" class="fil6" cx="16.5" cy="174.76939" r="3" fill="#434242" id="svg_60"/>
   <circle stroke="null" class="fil6" cx="16.5" cy="184.76939" r="3" fill="#434242" id="svg_61"/>
   <circle stroke="null" class="fil6" cx="86.5" cy="75.76939" r="3" fill="#434242" id="svg_62"/>
   <circle stroke="null" class="fil6" cx="86.5" cy="86.76939" r="3" fill="#434242" id="svg_63"/>
   <circle stroke="null" class="fil6" cx="86.5" cy="96.76939" r="3" fill="#434242" id="svg_64"/>
   <circle stroke="null" class="fil6" cx="86.5" cy="108.76939" r="3" fill="#434242" id="svg_65"/>
   <circle stroke="null" class="fil6" cx="86.5" cy="119.76939" r="3" fill="#434242" id="svg_66"/>
   <circle stroke="null" class="fil6" cx="86.5" cy="130.76939" r="3" fill="#434242" id="svg_67"/>
   <circle stroke="null" class="fil6" cx="86.5" cy="140.76939" r="3" fill="#434242" id="svg_68"/>
   <circle stroke="null" class="fil6" cx="86.5" cy="151.76939" r="3" fill="#434242" id="svg_69"/>
   <circle stroke="null" class="fil6" cx="86.5" cy="163.76939" r="3" fill="#434242" id="svg_70"/>
   <circle stroke="null" class="fil6" cx="86.5" cy="174.76939" r="3" fill="#434242" id="svg_71"/>
   <circle stroke="null" class="fil6" cx="86.5" cy="184.76939" r="3" fill="#434242" id="svg_72"/>
  </g>
 </g>

</svg>